<svg width="13" height="13" viewBox="0 0 13 13" fill="none" xmlns="http://www.w3.org/2000/svg">
    <path fill-rule="evenodd" clip-rule="evenodd" d="M10.5922 8.00686C10.1585 7.5787 9.61712 7.5787 9.1862 8.00686C8.85747 8.33281 8.52875 8.65876 8.20556 8.99023C8.11716 9.08139 8.04258 9.10072 7.93485 9.03995C7.72214 8.92394 7.49563 8.83002 7.29122 8.70295C6.3382 8.10354 5.53988 7.33286 4.83272 6.4655C4.4819 6.03459 4.16975 5.57328 3.95152 5.05397C3.90732 4.94901 3.91561 4.87995 4.00124 4.79432C4.32997 4.47666 4.6504 4.15071 4.9736 3.82476C5.42386 3.37174 5.42386 2.84138 4.97083 2.38561C4.71393 2.12595 4.45703 1.87182 4.20013 1.61217C3.93495 1.34699 3.67252 1.07905 3.40457 0.816628C2.97088 0.393998 2.42946 0.393998 1.99853 0.81939C1.66705 1.14534 1.34938 1.47958 1.01237 1.8C0.700223 2.09557 0.542769 2.45743 0.50962 2.88006C0.457135 3.56786 0.625639 4.217 0.863202 4.84957C1.34938 6.15889 2.08969 7.32181 2.98746 8.38805C4.20013 9.82997 5.64761 10.9708 7.34094 11.794C8.10335 12.1641 8.89338 12.4486 9.75248 12.4956C10.3436 12.5287 10.8574 12.3796 11.269 11.9183C11.5508 11.6034 11.8684 11.3161 12.1668 11.015C12.6088 10.5675 12.6115 10.0261 12.1723 9.58412C11.6475 9.05653 11.1198 8.53169 10.5922 8.00686Z" fill="#7A7A7A"/>
</svg>
