<svg width="16" height="16" viewBox="0 0 16 16" fill="none" xmlns="http://www.w3.org/2000/svg">
    <path fill-rule="evenodd" clip-rule="evenodd" d="M7.95121 15C11.7936 15 14.9085 11.866 14.9085 8C14.9085 4.13401 11.7936 1 7.95121 1C4.10879 1 0.993896 4.13401 0.993896 8C0.993896 11.866 4.10879 15 7.95121 15ZM9.11078 4.49999C9.11078 5.14433 8.59163 5.66666 7.95122 5.66666C7.31082 5.66666 6.79167 5.14433 6.79167 4.49999C6.79167 3.85566 7.31082 3.33333 7.95122 3.33333C8.59163 3.33333 9.11078 3.85566 9.11078 4.49999ZM6.79167 7.83333C6.79167 7.28104 7.23939 6.83333 7.79167 6.83333H8.11078C8.66306 6.83333 9.11078 7.28104 9.11078 7.83333V11.6667C9.11078 12.2189 8.66306 12.6667 8.11078 12.6667H7.79167C7.23939 12.6667 6.79167 12.2189 6.79167 11.6667V7.83333Z" fill="#7A7A7A"/>
</svg>
