<svg width="18" height="18" viewBox="0 0 18 18" fill="none" xmlns="http://www.w3.org/2000/svg">
    <path fill-rule="evenodd" clip-rule="evenodd" d="M12.8571 11.3143H12.0343L11.7257 11.0057C12.7543 9.87429 13.3714 8.33143 13.3714 6.68571C13.3714 2.98286 10.3886 0 6.68571 0C2.98286 0 0 2.98286 0 6.68571C0 10.3886 2.98286 13.3714 6.68571 13.3714C8.33143 13.3714 9.87429 12.7543 11.0057 11.7257L11.3143 12.0343V12.8571L16.4571 18L18 16.4571L12.8571 11.3143ZM6.68571 11.3143C4.11429 11.3143 2.05714 9.25714 2.05714 6.68571C2.05714 4.11429 4.11429 2.05714 6.68571 2.05714C9.25714 2.05714 11.3143 4.11429 11.3143 6.68571C11.3143 9.25714 9.25714 11.3143 6.68571 11.3143Z" fill="#B4B4B4"/>
</svg>
